PathFileType	4	(X/Y/Z)	s10c0103.trc
DataRate	CameraRate	NumFrames	NumMarkers	Units	OrigDataRate	OrigDataStartFrame	OrigNumFrames
200	200	4	50	mm	200	500	2000
Frame#	Time	racr			lacr			c7			jug			rlel			rdr			llel			ldr			s2			lic			ric			lasi			rasi			rpsi			lpsi			rgt			lgt			rth1			rth2			rth3			rth4			rlfc			rmfc			rsh1			rsh2			rsh3			rsh4			rlmal			rmmal			rcal			rtoe			rmt5			lth1			lth2			lth4			lth3			llfc			lmfc			llmal			lmmal			lcal			lmt5			lsh1			lsh2			lsh3			lsh4			ltoe			SBIKE			LBIKE			RBIKE			
		X1	Y1	Z1	X2	Y2	Z2	X3	Y3	Z3	X4	Y4	Z4	X5	Y5	Z5	X6	Y6	Z6	X7	Y7	Z7	X8	Y8	Z8	X9	Y9	Z9	X10	Y10	Z10	X11	Y11	Z11	X12	Y12	Z12	X13	Y13	Z13	X14	Y14	Z14	X15	Y15	Z15	X16	Y16	Z16	X17	Y17	Z17	X18	Y18	Z18	X19	Y19	Z19	X20	Y20	Z20	X21	Y21	Z21	X22	Y22	Z22	X23	Y23	Z23	X24	Y24	Z24	X25	Y25	Z25	X26	Y26	Z26	X27	Y27	Z27	X28	Y28	Z28	X29	Y29	Z29	X30	Y30	Z30	X31	Y31	Z31	X32	Y32	Z32	X33	Y33	Z33	X34	Y34	Z34	X35	Y35	Z35	X36	Y36	Z36	X37	Y37	Z37	X38	Y38	Z38	X39	Y39	Z39	X40	Y40	Z40	X41	Y41	Z41	X42	Y42	Z42	X43	Y43	Z43	X44	Y44	Z44	X45	Y45	Z45	X46	Y46	Z46	X47	Y47	Z47	X48	Y48	Z48	X49	Y49	Z49	X50	Y50	Z50	
500	2.5000	453.943584	1285.895784	-97.616892	407.575867	1295.940074	-384.462857	377.677183	1344.102345	-231.222071	380.755828	1195.253225	-236.766765	503.373894	1042.822552	14.659045	643.323351	877.538522	-51.124386	475.864242	1039.626946	-480.527303	639.478110	887.526413	-413.896394	-118.953896	1107.863665	-198.957759	32.671270	1149.596826	-354.898769	65.414627	1132.578047	-54.822426	73.315176	1064.209026	-326.480888	71.261165	1047.383759	-70.409321	-76.197170	1165.638621	-136.915565	-81.717034	1181.346335	-247.330272	-42.196005	1002.953388	-20.548008	-30.210379	1020.677228	-404.719807	15.304626	866.494846	-0.811432	69.852700	797.707927	-16.067165	79.738325	714.090180	-31.423643	104.025937	814.038813	-20.230674	134.667183	623.930937	-52.379887	122.302746	613.363707	-169.442239	97.798953	516.757360	-23.410883	120.664095	431.296650	-34.907295	98.377565	347.837320	-39.948315	152.083006	434.451677	-57.335817	99.394371	251.372153	-55.259798	116.275158	261.096264	-134.716248	47.845011	250.131960	-102.855744	268.233367	145.348139	-102.623764	182.286581	149.047193	-39.603289	85.964091	974.529272	-415.658453	171.182363	981.415952	-400.451278	175.877679	1013.686957	-382.896237	252.182034	944.764579	-401.734202	355.273480	909.229082	-382.051419	356.159761	887.929464	-256.756867	101.603976	624.475250	-382.754693	116.196466	617.832839	-302.111419	39.124987	620.889342	-339.018169	157.580383	490.468428	-399.891664	271.743839	825.121337	-413.777288	238.680193	744.950948	-399.564618	167.036864	691.956378	-397.002980	262.287578	729.707145	-373.704040	241.203175	468.715587	-343.478862	-217.651691	831.946633	-213.845694	-103.933422	80.531278	-418.287694	-103.964987	80.469500	-18.383078	
501	2.5050	453.925457	1285.316454	-99.485683	406.690422	1294.740618	-386.028327	377.301938	1343.156832	-232.967613	380.316768	1194.293680	-238.166103	503.197831	1042.657851	13.732716	643.374508	877.283337	-51.046792	474.033770	1038.255096	-482.179089	639.095941	888.079272	-413.972191	-119.700459	1107.703428	-198.600755	31.664064	1150.033374	-354.432254	65.918002	1132.231911	-54.919760	72.502572	1064.584368	-326.526738	71.146361	1047.192122	-70.558135	-80.055553	1167.763075	-135.518687	-83.267155	1181.968198	-246.592024	-42.253532	1002.866522	-20.552088	-30.479829	1020.423077	-404.662596	15.226634	866.370708	-0.847542	70.044934	797.766913	-16.020766	80.379295	714.230479	-31.506568	104.196010	814.243677	-19.972669	135.288346	624.058631	-52.052255	123.687897	614.136577	-169.008167	97.094872	517.135195	-23.210954	118.397301	431.436276	-34.837870	94.821217	348.376938	-40.070664	149.971582	434.124974	-57.176951	94.093969	252.000601	-55.307701	110.599204	261.113388	-134.753457	42.392851	250.817535	-103.200621	261.638447	143.842520	-102.376583	175.672549	148.664052	-39.610572	85.983333	974.937698	-415.397624	171.123675	981.940325	-400.005216	175.812422	1014.330704	-382.778464	252.085324	945.114087	-400.905526	355.137631	911.038817	-381.655933	356.369627	890.164732	-256.018239	104.472201	623.521810	-382.356371	118.482487	617.104818	-302.185923	41.354623	618.256124	-339.202514	163.608233	491.435271	-400.116255	272.689530	826.306232	-413.503428	240.553009	745.617553	-399.379914	169.531343	691.821867	-397.018933	264.151859	730.942675	-373.457066	247.935167	472.244413	-343.683752	-217.658870	831.927482	-213.860314	-103.922161	80.537123	-418.270636	-103.970739	80.472644	-18.390304	
502	2.5100	453.869260	1284.708931	-101.200130	405.867498	1293.415659	-387.560368	376.937461	1342.109024	-234.521814	379.948886	1193.233248	-239.353605	502.836128	1042.383026	12.915578	643.382920	877.134598	-51.045743	472.046646	1036.791249	-483.970228	638.733806	888.692806	-413.950342	-120.449395	1107.906966	-198.356457	30.403891	1150.365150	-353.747292	66.241197	1131.779909	-55.103306	71.494838	1065.047340	-326.654153	70.780941	1046.701953	-71.034979	-82.171939	1168.818310	-134.505827	-84.260174	1182.189934	-246.192204	-42.243173	1002.797989	-20.606708	-31.001913	1020.201300	-404.673970	15.371033	866.279287	-0.959098	70.617409	797.968201	-16.099138	81.630421	714.514951	-31.644647	104.698096	814.628295	-19.847046	136.485024	624.423847	-51.713822	125.690056	615.003315	-168.441755	96.806305	517.806270	-22.983581	116.582777	431.843037	-34.706370	91.524279	349.325869	-40.074981	148.199832	434.057837	-57.119227	88.676011	252.726562	-55.381453	105.503943	261.747119	-134.847937	37.308158	252.337082	-103.071512	255.053016	142.703810	-102.326331	169.085333	148.594251	-39.507539	85.653080	975.145628	-415.154211	170.789428	982.176224	-399.699949	175.505641	1014.690163	-382.847756	251.632146	945.075285	-400.059121	354.831818	912.395880	-381.022504	356.241293	892.299296	-255.259067	107.000258	622.299040	-382.277402	120.734558	616.122928	-302.210461	43.376795	615.100950	-339.400725	169.435801	492.059059	-400.486182	273.146284	827.073739	-412.742050	242.062490	745.930986	-399.087681	171.716926	691.161581	-396.944865	265.666191	731.702420	-373.023618	254.412352	475.693288	-343.772158	-217.676133	831.921696	-213.856598	-103.907719	80.525581	-418.282457	-103.920964	80.481738	-18.359130	
503	2.5150	453.788566	1283.825159	-102.762454	405.149848	1291.957384	-389.020717	376.625023	1340.890121	-236.022799	379.554303	1192.002099	-240.522699	502.352333	1041.892510	12.177155	643.436607	877.035070	-51.058472	470.005951	1035.125774	-485.712693	638.308633	889.299548	-414.048636	-121.312762	1107.711700	-198.074415	29.074236	1150.750782	-353.170103	66.426684	1131.429453	-55.330312	70.350349	1065.511375	-326.945882	70.474677	1046.272560	-71.478022	-82.252444	1168.814676	-134.076408	-85.295969	1182.490637	-245.719535	-42.202514	1002.676729	-20.735125	-31.848919	1019.957616	-404.683886	15.741792	866.197587	-1.180301	71.599180	798.431579	-16.347976	83.407573	715.054245	-31.877917	105.419523	815.227064	-19.995418	138.305049	624.977520	-51.362452	128.131984	615.963784	-167.881057	96.983988	518.929256	-22.754120	115.041741	432.459200	-34.520514	88.296789	350.496109	-40.061379	146.623494	433.899298	-57.071533	83.179422	253.809704	-55.229486	100.815921	262.285518	-134.692554	31.672738	253.591488	-103.392997	248.351169	141.850776	-102.156313	162.564887	148.830834	-39.509049	85.019313	975.043572	-414.964760	170.117504	982.182337	-399.467363	174.892449	1014.935471	-383.017627	250.969415	944.873917	-399.470241	354.235140	913.424659	-380.400764	355.863008	894.088968	-254.552032	109.304484	620.585718	-382.259340	122.988232	614.875845	-302.042517	45.385909	611.450076	-339.724297	175.485367	492.835481	-400.975868	273.286884	827.368265	-412.139315	243.165496	745.791765	-398.743276	173.490368	690.234149	-396.831101	266.751474	731.833631	-372.378234	260.809127	478.973406	-343.983319	-217.708889	831.917059	-213.856021	-103.849278	80.542817	-418.255717	-103.874199	80.496628	-18.319307	
